<svg width="80" height="80" viewBox="0 0 80 80" fill="none" xmlns="http://www.w3.org/2000/svg">
<rect x="2.51136" y="3.32954" width="74.1591" height="74.1591" rx="37.0795" fill="#A9FFE1"/>
<rect x="2.51136" y="3.32954" width="74.1591" height="74.1591" rx="37.0795" stroke="white" stroke-width="4.97727"/>
<path d="M39.5908 53.8191C41.8408 53.8191 43.7158 55.4091 45.5908 55.4091C50.0908 55.4091 54.5908 43.4091 54.5908 37.0791C54.5397 35.1362 53.7227 33.2922 52.3178 31.9491C50.9129 30.6061 49.0341 29.8728 47.0908 29.9091C43.7608 29.9091 41.0908 32.0691 39.5908 32.9091C38.0908 32.0691 35.4208 29.9091 32.0908 29.9091C30.1464 29.8688 28.2654 30.6008 26.8596 31.9447C25.4539 33.2886 24.638 35.1349 24.5908 37.0791C24.5908 43.4091 29.0908 55.4091 33.5908 55.4091C35.4658 55.4091 37.3408 53.8191 39.5908 53.8191Z" stroke="black" stroke-width="2" stroke-linecap="round" stroke-linejoin="round"/>
<path d="M36.5908 25.4091C38.0908 26.1591 39.5908 28.4091 39.5908 32.9091" stroke="black" stroke-width="2" stroke-linecap="round" stroke-linejoin="round"/>
</svg>
