<svg width="83" height="83" viewBox="0 0 83 83" fill="none" xmlns="http://www.w3.org/2000/svg">
<rect x="2.51136" y="2.51136" width="77.9773" height="77.9773" rx="38.9886" fill="#A9FFE1"/>
<rect x="2.51136" y="2.51136" width="77.9773" height="77.9773" rx="38.9886" stroke="white" stroke-width="4.97727"/>
<mask id="mask0_15_1206" style="mask-type:alpha" maskUnits="userSpaceOnUse" x="21" y="21" width="41" height="41">
<rect x="21.5908" y="21.5909" width="39.8182" height="39.8182" fill="#D9D9D9"/>
</mask>
<g mask="url(#mask0_15_1206)">
<path d="M26.5682 58.0909C25.6557 58.0909 24.8745 57.766 24.2247 57.1162C23.5749 56.4664 23.25 55.6852 23.25 54.7727V31.5455C23.25 30.633 23.5749 29.8518 24.2247 29.202C24.8745 28.5522 25.6557 28.2273 26.5682 28.2273H39.8409V31.5455H26.5682V54.7727H49.7955V44.8182H53.1136V54.7727C53.1136 55.6852 52.7887 56.4664 52.1389 57.1162C51.4891 57.766 50.708 58.0909 49.7955 58.0909H26.5682ZM29.8864 51.4545H33.2045V39.8409H29.8864V51.4545ZM36.5227 51.4545H39.8409V34.8636H36.5227V51.4545ZM43.1591 51.4545H46.4773V44.8182H43.1591V51.4545ZM51.4545 41.5C50.625 41.5 49.8093 41.3756 49.0074 41.1267C48.2055 40.8778 47.4589 40.5184 46.7676 40.0483L46.1455 40.629C45.8136 40.9331 45.4196 41.0852 44.9634 41.0852C44.5071 41.0852 44.1269 40.9331 43.8227 40.629C43.5186 40.3248 43.3665 39.9377 43.3665 39.4676C43.3665 38.9975 43.5186 38.6104 43.8227 38.3062L44.4864 37.6426C44.0439 36.979 43.7121 36.2739 43.4909 35.5273C43.2697 34.7807 43.1591 34.0064 43.1591 33.2045C43.1591 30.9095 43.9679 28.9531 45.5855 27.3355C47.2031 25.7179 49.1595 24.9091 51.4545 24.9091H59.75V33.2045C59.75 35.4996 58.9412 37.456 57.3236 39.0736C55.706 40.6912 53.7496 41.5 51.4545 41.5ZM51.4545 38.1818C52.8371 38.1818 54.0123 37.6979 54.9801 36.7301C55.9479 35.7623 56.4318 34.5871 56.4318 33.2045V28.2273H51.4545C50.072 28.2273 48.8968 28.7112 47.929 29.679C46.9612 30.6468 46.4773 31.822 46.4773 33.2045C46.4773 33.564 46.5118 33.9097 46.581 34.2415C46.6501 34.5733 46.7538 34.9051 46.892 35.2369L51.2057 30.9233C51.5099 30.6191 51.897 30.467 52.3671 30.467C52.8371 30.467 53.2242 30.6191 53.5284 30.9233C53.8602 31.2551 54.0261 31.6491 54.0261 32.1054C54.0261 32.5616 53.8602 32.9557 53.5284 33.2875L49.2148 37.6011C49.5742 37.767 49.9406 37.9053 50.3139 38.0159C50.6872 38.1265 51.0674 38.1818 51.4545 38.1818Z" fill="#151515"/>
</g>
</svg>
