<svg width="75" height="74" viewBox="0 0 75 74" fill="none" xmlns="http://www.w3.org/2000/svg">
<rect x="3.04171" y="2.81002" width="68.9483" height="68.9483" rx="34.4742" fill="#A9FFE1"/>
<rect x="3.04171" y="2.81002" width="68.9483" height="68.9483" rx="34.4742" stroke="white" stroke-width="4.40096"/>
<mask id="mask0_15_1014" style="mask-type:alpha" maskUnits="userSpaceOnUse" x="19" y="19" width="37" height="36">
<rect x="19.9121" y="19.6802" width="35.2077" height="35.2077" fill="#D9D9D9"/>
</mask>
<g mask="url(#mask0_15_1014)">
<path d="M33.4082 33.1766L36.6722 27.7854L34.5084 24.1913C34.215 23.7023 33.7933 23.4578 33.2432 23.4578C32.693 23.4578 32.2713 23.7023 31.9779 24.1913L28.3838 30.1692L33.4082 33.1766ZM47.6013 43.1521L44.3372 37.7242L49.435 34.7902L51.7822 38.7144C52.0511 39.1301 52.1978 39.5946 52.2223 40.1081C52.2467 40.6215 52.1367 41.0983 51.8922 41.5384C51.6477 42.0274 51.2871 42.4186 50.8103 42.712C50.3335 43.0054 49.814 43.1521 49.2516 43.1521H47.6013ZM43.3837 53.421L37.5158 47.553L43.3837 41.6851V44.619H50.3519L48.2248 48.8733C47.9558 49.3623 47.5891 49.7535 47.1245 50.0469C46.66 50.3403 46.1465 50.487 45.5842 50.487H43.3837V53.421ZM29.1906 50.487C28.7016 50.487 28.2554 50.3586 27.852 50.1019C27.4486 49.8452 27.1491 49.509 26.9535 49.0934C26.7579 48.7022 26.6662 48.2926 26.6784 47.8648C26.6906 47.4369 26.8068 47.0396 27.0268 46.6728L28.2737 44.619H34.5818V50.487H29.1906ZM25.5598 46.3061L23.176 41.5384C22.9559 41.0983 22.852 40.6276 22.8642 40.1264C22.8765 39.6252 23.017 39.1545 23.286 38.7144L23.8728 37.7242L21.3789 36.2206L29.4107 34.2034L31.4278 42.2719L28.8972 40.7315L25.5598 46.3061ZM45.3641 33.7634L37.3324 31.7462L39.8629 30.2426L35.2786 22.6143H40.4497C40.9632 22.6143 41.4461 22.7426 41.8984 22.9993C42.3507 23.2561 42.7113 23.6045 42.9803 24.0446L44.8874 27.2353L47.3812 25.6949L45.3641 33.7634Z" fill="#151515"/>
</g>
</svg>
