<svg width="66" height="66" viewBox="0 0 66 66" fill="none" xmlns="http://www.w3.org/2000/svg">
<rect x="2.02273" y="2.02273" width="61.9545" height="61.9545" rx="30.9773" fill="#A9FFE1"/>
<rect x="2.02273" y="2.02273" width="61.9545" height="61.9545" rx="30.9773" stroke="white" stroke-width="3.95455"/>
<mask id="mask0_15_1035" style="mask-type:alpha" maskUnits="userSpaceOnUse" x="17" y="17" width="32" height="32">
<rect x="17.1816" y="17.1819" width="31.6364" height="31.6364" fill="#D9D9D9"/>
</mask>
<g mask="url(#mask0_15_1035)">
<path d="M31.6815 26.0796V22.7841C31.6815 21.8614 32.0001 21.0815 32.6372 20.4443C33.2743 19.8072 34.0542 19.4886 34.977 19.4886H38.2724V22.7841C38.2724 23.7068 37.9539 24.4868 37.3167 25.1239C36.6796 25.761 35.8997 26.0796 34.977 26.0796H31.6815ZM24.4315 33.9886C23.1573 33.9886 22.0698 33.5383 21.169 32.6375C20.2682 31.7368 19.8179 30.6493 19.8179 29.375V24.7614H24.4315C25.7058 24.7614 26.7933 25.2118 27.694 26.1125C28.5948 27.0133 29.0451 28.1008 29.0451 29.375V33.9886H24.4315ZM38.2724 45.8523C37.4156 45.8523 36.5972 45.7205 35.8173 45.4568C35.0374 45.1932 34.3289 44.8307 33.6917 44.3693L32.6042 45.4568C32.3626 45.6985 32.055 45.8193 31.6815 45.8193C31.308 45.8193 31.0004 45.6985 30.7588 45.4568C30.5171 45.2152 30.3963 44.9076 30.3963 44.5341C30.3963 44.1606 30.5171 43.853 30.7588 43.6114L31.8463 42.5239C31.3849 41.8868 31.0224 41.1782 30.7588 40.3983C30.4951 39.6184 30.3633 38.8 30.3633 37.9432C30.3633 35.7462 31.1323 33.8733 32.6701 32.3244C34.208 30.7756 36.0754 30.0011 38.2724 30.0011H46.2145V37.9432C46.2145 40.1402 45.44 42.0076 43.8912 43.5455C42.3423 45.0833 40.4694 45.8523 38.2724 45.8523ZM38.2724 43.2159C39.7444 43.2159 40.9857 42.6996 41.9963 41.6671C43.0069 40.6345 43.5122 39.3932 43.5122 37.9432V32.6705H38.2724C36.8224 32.6705 35.5811 33.1813 34.5486 34.2029C33.516 35.2244 32.9997 36.4712 32.9997 37.9432C32.9997 38.4485 33.0601 38.9263 33.1809 39.3767C33.3018 39.8271 33.483 40.25 33.7247 40.6455L37.3497 37.0205C37.5914 36.7788 37.8989 36.658 38.2724 36.658C38.6459 36.658 38.9535 36.7788 39.1951 37.0205C39.4368 37.2621 39.5576 37.5697 39.5576 37.9432C39.5576 38.3167 39.4368 38.6243 39.1951 38.8659L35.5701 42.4909C35.9656 42.7326 36.3885 42.9138 36.8389 43.0347C37.2893 43.1555 37.7671 43.2159 38.2724 43.2159Z" fill="#151515"/>
</g>
</svg>
