<svg width="75" height="74" viewBox="0 0 75 74" fill="none" xmlns="http://www.w3.org/2000/svg">
<rect x="3.04171" y="2.81002" width="68.9483" height="68.9483" rx="34.4742" fill="#A9FFE1"/>
<rect x="3.04171" y="2.81002" width="68.9483" height="68.9483" rx="34.4742" stroke="white" stroke-width="4.40096"/>
<mask id="mask0_15_1004" style="mask-type:alpha" maskUnits="userSpaceOnUse" x="19" y="19" width="37" height="36">
<rect x="19.9121" y="19.6802" width="35.2077" height="35.2077" fill="#D9D9D9"/>
</mask>
<g mask="url(#mask0_15_1004)">
<path d="M36.7823 44.619C38.616 44.619 40.1747 43.9772 41.4583 42.6936C42.7419 41.41 43.3837 39.8513 43.3837 38.0176V31.4161H36.7823C34.9485 31.4161 33.3899 32.0579 32.1062 33.3415C30.8226 34.6251 30.1808 36.1838 30.1808 38.0176C30.1808 38.6532 30.2664 39.2645 30.4375 39.8513C30.6087 40.4381 30.8654 41.0004 31.2077 41.5383L30.6209 42.1251C30.352 42.3941 30.2175 42.7364 30.2175 43.152C30.2175 43.5676 30.352 43.9099 30.6209 44.1789C30.8899 44.4478 31.2322 44.5823 31.6478 44.5823C32.0635 44.5823 32.4058 44.4478 32.6747 44.1789L33.2615 43.5921C33.7994 43.9344 34.3617 44.1911 34.9485 44.3623C35.5353 44.5334 36.1466 44.619 36.7823 44.619ZM36.7823 41.685C36.5622 41.685 36.3422 41.6606 36.1221 41.6117C35.9021 41.5628 35.682 41.5016 35.462 41.4283L38.5426 38.311C38.8116 38.042 38.9461 37.6997 38.9461 37.2841C38.9461 36.8684 38.8116 36.5261 38.5426 36.2572C38.2737 35.9882 37.9314 35.8538 37.5158 35.8538C37.1001 35.8538 36.7578 35.9882 36.4889 36.2572L33.3715 39.3378C33.2982 39.1178 33.237 38.8977 33.1881 38.6777C33.1392 38.4576 33.1148 38.2376 33.1148 38.0176C33.1148 36.9907 33.4693 36.1227 34.1784 35.4137C34.8874 34.7046 35.7554 34.3501 36.7823 34.3501H40.4497V38.0176C40.4497 39.0444 40.0952 39.9124 39.3862 40.6215C38.6771 41.3305 37.8091 41.685 36.7823 41.685ZM37.5158 53.4209L32.4546 49.46L26.1099 48.6899L25.3398 42.3452L21.3789 37.2841L25.3398 32.223L26.1099 25.8782L32.4546 25.1081L37.5158 21.1472L42.5769 25.1081L48.9216 25.8782L49.6917 32.223L53.6526 37.2841L49.6917 42.3452L48.9216 48.6899L42.5769 49.46L37.5158 53.4209ZM37.5158 49.6801L41.4033 46.6728L46.3177 46.0493L46.9045 41.1716L49.9118 37.2841L46.9045 33.3965L46.281 28.5188L41.4033 27.8954L37.5158 24.888L33.6282 27.8954L28.7138 28.5188L28.127 33.3965L25.1197 37.2841L28.127 41.1716L28.7505 46.086L33.6282 46.6728L37.5158 49.6801Z" fill="#151515"/>
</g>
</svg>
