<svg width="66" height="66" viewBox="0 0 66 66" fill="none" xmlns="http://www.w3.org/2000/svg">
<rect x="2.02273" y="2.02273" width="61.9545" height="61.9545" rx="30.9773" fill="#A9FFE1"/>
<rect x="2.02273" y="2.02273" width="61.9545" height="61.9545" rx="30.9773" stroke="white" stroke-width="3.95455"/>
<mask id="mask0_15_1027" style="mask-type:alpha" maskUnits="userSpaceOnUse" x="17" y="17" width="32" height="32">
<rect x="17.1816" y="17.1819" width="31.6364" height="31.6364" fill="#D9D9D9"/>
</mask>
<g mask="url(#mask0_15_1027)">
<path d="M24.2999 43.0183C23.3112 42.0296 22.5368 40.8872 21.9766 39.591C21.4163 38.2948 21.1362 36.9546 21.1362 35.5705C21.1362 34.1865 21.3999 32.8188 21.9271 31.4677C22.4544 30.1166 23.3112 28.8478 24.4976 27.6615C25.2665 26.8925 26.2167 26.2334 27.3482 25.6842C28.4796 25.1349 29.8198 24.701 31.3686 24.3825C32.9175 24.0639 34.686 23.8717 36.6743 23.8058C38.6626 23.7399 40.887 23.8168 43.3476 24.0365C43.5234 26.3652 43.5783 28.5073 43.5124 30.4626C43.4465 32.4179 43.2652 34.181 42.9686 35.7518C42.672 37.3226 42.2546 38.6957 41.7163 39.8711C41.1781 41.0465 40.5135 42.0296 39.7226 42.8205C38.5582 43.9849 37.3224 44.8363 36.0152 45.3745C34.708 45.9128 33.3734 46.1819 32.0112 46.1819C30.5832 46.1819 29.1881 45.9018 27.826 45.3416C26.4639 44.7813 25.2885 44.0069 24.2999 43.0183ZM27.9908 42.491C28.6279 42.8645 29.2815 43.1336 29.9516 43.2984C30.6216 43.4632 31.3082 43.5455 32.0112 43.5455C33.0218 43.5455 34.0215 43.3423 35.0101 42.9359C35.9987 42.5294 36.9434 41.8758 37.8442 40.9751C38.2396 40.5796 38.6406 40.0249 39.047 39.3109C39.4535 38.5969 39.805 37.6632 40.1016 36.5098C40.3982 35.3563 40.6234 33.9613 40.7771 32.3245C40.9309 30.6878 40.9529 28.738 40.8431 26.4751C39.7665 26.4312 38.5527 26.4147 37.2016 26.4257C35.8504 26.4366 34.5048 26.541 33.1646 26.7387C31.8245 26.9365 30.5502 27.255 29.3419 27.6944C28.1336 28.1338 27.1449 28.738 26.376 29.5069C25.3874 30.4955 24.7063 31.4732 24.3328 32.4399C23.9593 33.4065 23.7726 34.3402 23.7726 35.241C23.7726 36.5372 24.0198 37.6741 24.5141 38.6518C25.0084 39.6294 25.4423 40.316 25.8158 40.7115C26.7385 38.9539 27.9578 37.2677 29.4737 35.6529C30.9896 34.0382 32.7582 32.7145 34.7794 31.6819C33.1976 33.066 31.819 34.6313 30.6436 36.3779C29.4682 38.1245 28.584 40.1622 27.9908 42.491Z" fill="#151515"/>
</g>
</svg>
